Genre:Action | Adventure | Sci-Fi | Thriller
Language: English
IMDB:http://www.imdb.com/title/tt1228705/
Source:BluRay.x264-EXQUiSiTE
Subtitles: ROMANA


General
Complete name :Iron.Man.2.2010.480p.BRRip.XviD.Feel-Free
Format : AVI
Format/Info : Audio Video Interleave
Format profile : OpenDML
File size : 2.14 GiB
Duration : 2h 3mn
Overall bit rate : 2 479 Kbps
Video #0
Codec ID : XVID
Codec ID/Hint : XviD
Duration : 2h 3mn
Bit rate : 2 019 Kbps
Width : 688 pixels
Height : 288 pixels
Display aspect ratio : 2.35:1
Frame rate : 23.976 fps
Resolution : 24 bits
Colorimetry : 4:2:0
Scan type : Progressive
Bits/(Pixel*Frame) : 0.425
Stream size : 1.75 GiB (81%)
Writing library : XviD 1.2.1 (UTC 2008-12-04)
Audio #1
ID : 1
Format : AC-3
Format/Info : Audio Coding 3
Codec ID : 2000
Duration : 2h 3mn
Bit rate mode : Constant
Bit rate : 448 Kbps
Channel(s) : 6 channels
Channel positions : Front: L C R, Surround: L R, LFE
Sampling rate : 48.0 KHz
Stream size : 397 MiB (18%)
Alignment : Aligned on interleaves
Interleave, duration : 42 ms (1.00 video frame)
Interleave, preload duration : 512 ms

Plot
Billionaire Tony Stark must contend with deadly issues involving the government, his own friends, as well as new enemies due to his superhero alter ego Iron Man
